<svg preserveAspectRatio="none" overflow="visible" style="display: block;" width="14.7656" height="14.7656" viewBox="0 0 14.7656 14.7656" fill="none" xmlns="http://www.w3.org/2000/svg">
<path id="Vector" d="M7.38281 0C5.37891 0 5.125 0.00781244 4.33984 0.0429687C3.55469 0.0781249 3.01562 0.203125 2.54687 0.386719C2.0625 0.574219 1.64844 0.828125 1.23828 1.23828C0.828125 1.64844 0.574219 2.0625 0.386719 2.54687C0.203125 3.01562 0.0781249 3.55469 0.0429687 4.33984C0.00781244 5.12891 0 5.37891 0 7.38281C0 9.38672 0.00781244 9.64062 0.0429687 10.4258C0.0781249 11.2109 0.203125 11.75 0.386719 12.2187C0.574219 12.7031 0.828125 13.1172 1.23828 13.5273C1.64844 13.9375 2.05859 14.1914 2.54687 14.3789C3.01562 14.5625 3.55469 14.6875 4.33984 14.7227C5.12891 14.7578 5.37891 14.7656 7.38281 14.7656C9.38672 14.7656 9.64062 14.7578 10.4258 14.7227C11.2109 14.6875 11.75 14.5625 12.2187 14.3789C12.7031 14.1914 13.1172 13.9375 13.5273 13.5273C13.9375 13.1172 14.1914 12.7031 14.3789 12.2187C14.5586 11.75 14.6836 11.2109 14.7227 10.4258C14.7578 9.63672 14.7656 9.38672 14.7656 7.38281C14.7656 5.37891 14.7578 5.125 14.7227 4.33984C14.6875 3.55469 14.5625 3.01562 14.3789 2.54687C14.1914 2.0625 13.9375 1.64844 13.5273 1.23828C13.1172 0.828125 12.707 0.574219 12.2187 0.386719C11.75 0.203125 11.2109 0.0781249 10.4258 0.0429687C9.63672 0.00781244 9.38672 0 7.38281 0ZM6.71875 1.33203H7.38281C9.35547 1.33203 9.58594 1.33984 10.3672 1.375C11.0859 1.40625 11.4766 1.52734 11.7383 1.62891C12.082 1.76172 12.3281 1.92188 12.5859 2.17969C12.8438 2.4375 13.0039 2.68359 13.1367 3.02734C13.2383 3.28906 13.3594 3.67969 13.3906 4.39844C13.4258 5.17578 13.4336 5.41016 13.4336 7.38281C13.4336 9.35547 13.4258 9.58594 13.3906 10.3672C13.3594 11.0859 13.2383 11.4766 13.1367 11.7383C13.0039 12.082 12.8438 12.3281 12.5859 12.5859C12.3281 12.8438 12.082 13.0039 11.7383 13.1367C11.4766 13.2383 11.0859 13.3594 10.3672 13.3906C9.58984 13.4258 9.35547 13.4336 7.38281 13.4336C5.41016 13.4336 5.17578 13.4258 4.39844 13.3906C3.67969 13.3555 3.28906 13.2383 3.02734 13.1367C2.68359 13.0039 2.4375 12.8438 2.17969 12.5859C1.92188 12.3281 1.76172 12.082 1.62891 11.7383C1.52734 11.4766 1.40625 11.0859 1.375 10.3672C1.33984 9.58984 1.33203 9.35547 1.33203 7.38281C1.33203 5.41016 1.33984 5.17969 1.375 4.39844C1.40625 3.67969 1.52734 3.28906 1.62891 3.02734C1.76172 2.68359 1.92188 2.4375 2.17969 2.17969C2.4375 1.92188 2.68359 1.76172 3.02734 1.62891C3.28906 1.52734 3.67969 1.40625 4.39844 1.375C5.07813 1.33984 5.34375 1.33203 6.71875 1.33203ZM11.3242 2.55859C10.8359 2.55859 10.4375 2.95312 10.4375 3.44531C10.4375 3.93359 10.8359 4.33203 11.3242 4.33203C11.8125 4.33203 12.2109 3.93359 12.2109 3.44531C12.2109 2.95703 11.8125 2.55469 11.3242 2.55859ZM7.38281 3.59375C5.28906 3.59375 3.58984 5.29297 3.58984 7.38672C3.58984 9.48047 5.28906 11.1758 7.38281 11.1758C9.47656 11.1758 11.1719 9.48047 11.1719 7.38672C11.1719 5.29297 9.47656 3.59375 7.38281 3.59375ZM7.38281 4.92188C8.74219 4.92188 9.84375 6.02344 9.84375 7.38281C9.84375 8.74219 8.74219 9.84375 7.38281 9.84375C6.02344 9.84375 4.92188 8.74219 4.92188 7.38281C4.92188 6.02344 6.02344 4.92188 7.38281 4.92188Z" fill="white"/>
</svg>
